<?xml version="1.0" encoding="UTF-8" standalone="no"?>
<svg
   width="2560"
   height="1570"
   viewBox="0 0 2560 1570"
   xml:space="preserve"
   overflow="hidden"
   version="1.1"
   id="svg88"
   sodipodi:docname="hpsu.svg"
   inkscape:version="1.4.2 (ebf0e94, 2025-05-08)"
   xmlns:inkscape="http://www.inkscape.org/namespaces/inkscape"
   xmlns:sodipodi="http://sodipodi.sourceforge.net/DTD/sodipodi-0.dtd"
   xmlns="http://www.w3.org/2000/svg"
   xmlns:svg="http://www.w3.org/2000/svg"><sodipodi:namedview
     id="namedview88"
     pagecolor="#ffffff"
     bordercolor="#000000"
     borderopacity="0.25"
     inkscape:showpageshadow="2"
     inkscape:pageopacity="0.0"
     inkscape:pagecheckerboard="0"
     inkscape:deskcolor="#d1d1d1"
     inkscape:zoom="0.567285"
     inkscape:cx="1997.2324"
     inkscape:cy="519.13941"
     inkscape:window-width="1600"
     inkscape:window-height="837"
     inkscape:window-x="-8"
     inkscape:window-y="-8"
     inkscape:window-maximized="1"
     inkscape:current-layer="layer1"
     showgrid="false"
     showguides="false" /><defs
     id="defs12"><linearGradient
       x1="362"
       y1="761.5"
       x2="362"
       y2="1280.5"
       gradientUnits="userSpaceOnUse"
       spreadMethod="reflect"
       id="fill0"
       gradientTransform="matrix(0.95,0,0,0.95,-154.8875,-267.9625)"><stop
         offset="0"
         stop-color="#4472C4"
         id="stop1" /><stop
         offset="0.74"
         stop-color="#ABC0E4"
         id="stop2" /><stop
         offset="0.83"
         stop-color="#ABC0E4"
         id="stop3" /><stop
         offset="1"
         stop-color="#C7D5ED"
         id="stop4" /></linearGradient><linearGradient
       x1="362"
       y1="761.5"
       x2="362"
       y2="1280.5"
       gradientUnits="userSpaceOnUse"
       spreadMethod="reflect"
       id="fill1"
       gradientTransform="matrix(0.95,0,0,0.95,-154.8875,-267.9625)"><stop
         offset="0"
         stop-color="#4472C4"
         id="stop5" /><stop
         offset="0.74"
         stop-color="#ABC0E4"
         id="stop6" /><stop
         offset="0.83"
         stop-color="#ABC0E4"
         id="stop7" /><stop
         offset="1"
         stop-color="#C7D5ED"
         id="stop8" /></linearGradient><linearGradient
       x1="362"
       y1="761.5"
       x2="362"
       y2="1280.5"
       gradientUnits="userSpaceOnUse"
       spreadMethod="reflect"
       id="fill2"
       gradientTransform="matrix(0.95,0,0,0.95,-154.8875,-267.9625)"><stop
         offset="0"
         stop-color="#4472C4"
         id="stop9" /><stop
         offset="0.74"
         stop-color="#ABC0E4"
         id="stop10" /><stop
         offset="0.83"
         stop-color="#ABC0E4"
         id="stop11" /><stop
         offset="1"
         stop-color="#C7D5ED"
         id="stop12" /></linearGradient></defs><g
     inkscape:groupmode="layer"
     id="layer1"
     inkscape:label="Layer 1"
     transform="translate(1.5625,-1.5625)"><g
       id="Spreizung"
       transform="matrix(0.95,0,0,0.95,-318.71042,-117.82477)"
       style="display:inline"><path
         d="m 1104.467,870.59592 14.5492,-363.75288"
         stroke="#595959"
         stroke-width="13.7189"
         stroke-miterlimit="8"
         fill="none"
         fill-rule="evenodd"
         id="path18-8-8"
         style="display:inline;stroke-width:8.16335;stroke-dasharray:none"
         sodipodi:nodetypes="cc"
         transform="matrix(1.0526316,0,0,1.0526316,335.48465,256.35307)" /><path
         d="M 1510.7393,661.48025 1499.2951,549.9403"
         stroke="#595959"
         stroke-width="13.7189"
         stroke-miterlimit="8"
         fill="none"
         fill-rule="evenodd"
         id="path18-8"
         style="display:inline;stroke-width:8.593;stroke-dasharray:none"
         sodipodi:nodetypes="cc" /><rect
         x="1483.5"
         y="723.75195"
         width="239"
         height="79.999802"
         stroke="#343434"
         stroke-width="4.58333"
         stroke-miterlimit="8"
         fill="#1c1c1c"
         id="spread_value" /><rect
         x="1483.5"
         y="643.75195"
         width="239"
         height="80.000099"
         stroke="#343434"
         stroke-width="4.58333"
         stroke-miterlimit="8"
         fill="#1c1c1c"
         id="spread_label" /></g><g
       id="refrigerant-pipes"
       style="display:inline"><rect
         x="382.33749"
         y="396.5625"
         width="544.34998"
         height="18.049906"
         stroke="#404040"
         stroke-width="4.58333"
         stroke-miterlimit="8"
         fill="#7f7f7f"
         id="rect12" /><rect
         x="366.1875"
         y="996.01251"
         width="560.5"
         height="18.999907"
         stroke="#404040"
         stroke-width="4.58333"
         stroke-miterlimit="8"
         fill="#7f7f7f"
         id="rect21" /><path
         d="m 678.4375,1002.7745 h 65.93 v 5.434 h -65.93 z m 61.579,-5.9945 17.4135,8.7115 -17.4135,8.7115 z"
         fill="#ffffff"
         id="Flow-Arrow-2"
         style="stroke-width:0.95" /><path
         d="m 787.655,402.86668 h -65.93 v 5.434 h 65.93 z m -61.579,-5.9945 -17.4135,8.7115 17.4135,8.7115 z"
         fill="#ffffff"
         id="Flow-Arrow-1"
         style="stroke-width:0.95" /></g><g
       id="fan"><path
         d="m 223.2562,644.5125 3.2813,0.66215 V 758.7975 l -3.2813,0.665 c -31.76705,0 -57.5187,-25.7355 -57.5187,-57.475 0,-31.74235 25.75165,-57.475 57.5187,-57.475 z"
         stroke="#2f528f"
         stroke-width="4.58333"
         stroke-miterlimit="8"
         fill="url(#fill2)"
         fill-rule="evenodd"
         id="path26"
         style="fill:url(#fill2)" /><path
         d="m 151.4875,830.7125 c 0,-65.056 17.2254,-117.8 38.475,-117.8 21.2496,0 38.475,52.744 38.475,117.8 0,65.056 -17.2254,117.8 -38.475,117.8 -21.2496,0 -38.475,-52.744 -38.475,-117.8 z"
         stroke="#2f528f"
         stroke-width="4.58333"
         stroke-miterlimit="8"
         fill="url(#fill0)"
         fill-rule="evenodd"
         id="path24"
         style="fill:url(#fill0)" /><path
         d="m 149.5875,573.2625 c 0,-65.05885 17.2254,-117.8 38.475,-117.8 21.24865,0 38.475,52.74115 38.475,117.8 0,65.05885 -17.22635,117.8 -38.475,117.8 -21.2496,0 -38.475,-52.74115 -38.475,-117.8 z"
         stroke="#2f528f"
         stroke-width="4.58333"
         stroke-miterlimit="8"
         fill="url(#fill1)"
         fill-rule="evenodd"
         id="path25"
         style="fill:url(#fill1)" /></g><g
       id="dhw-pipes"
       style="display:inline"><rect
         x="1059.4141"
         y="396.28909"
         width="1093.4893"
         height="18.596746"
         stroke="#2f528f"
         stroke-width="4.03649"
         stroke-miterlimit="8"
         fill="#4472c4"
         id="rect17" /><rect
         x="1018.461"
         y="996.83844"
         width="1149.0426"
         height="17.348137"
         stroke="#2f528f"
         stroke-width="6.3136"
         stroke-miterlimit="8"
         fill="#4472c4"
         id="rect22" /></g><g
       id="evaporator"><rect
         x="927.63751"
         y="301.5625"
         width="141.55"
         height="802.75"
         stroke="#2f528f"
         stroke-width="4.58333"
         stroke-miterlimit="8"
         fill="#2f5597"
         id="rect30" /><path
         d="m 927.6375,1104.3125 141.55,-802.75 v 802.75 z"
         stroke="#2f528f"
         stroke-width="0"
         stroke-miterlimit="8"
         fill="#411d07"
         fill-rule="evenodd"
         id="path30"
         style="display:inline" /></g><rect
       style="fill:none;stroke:none;stroke-width:4.07678"
       id="dhw_mixer_value"
       width="139.254"
       height="57.650959"
       x="1645.1097"
       y="1037.3499" /><rect
       style="fill:none;stroke:none;stroke-width:7.89036"
       id="bypass_value"
       width="69.457001"
       height="140.20416"
       x="2351.2249"
       y="702.18542" /><g
       id="Flow-Arrows"
       style="display:inline"><path
         d="m 1977.1375,768.7725 h 65.93 v 5.434 h -65.93 z m 61.579,-5.9945 17.4135,8.7115 -17.4135,8.7115 z"
         fill="#ffffff"
         id="Flow-Arrow-8"
         style="stroke-width:0.95" /><path
         d="m 1208.4375,1003.2705 h 65.93 v 5.434 h -65.93 z m 61.579,-5.9945 17.4135,8.7115 -17.4135,8.7115 z"
         fill="#ffffff"
         id="Flow-Arrow-6"
         style="stroke-width:0.95" /><path
         d="m 2107.3665,402.8325 h -65.93 v 5.434 h 65.93 z m -61.579,-5.9945 -17.4135,8.7115 17.4135,8.7115 z"
         fill="#ffffff"
         id="Flow-Arrow-5"
         style="stroke-width:0.95" /><path
         d="m 1827.763,402.8325 h -65.93 v 5.434 h 65.93 z m -61.579,-5.9945 -17.4135,8.7115 17.4135,8.7115 z"
         fill="#ffffff"
         id="Flow-Arrow-4"
         style="stroke-width:0.95" /><path
         d="m 1223.8887,402.8325 h -65.93 v 5.434 h 65.93 z m -61.579,-5.9945 -17.4135,8.7115 17.4135,8.7115 z"
         fill="#ffffff"
         id="Flow-Arrow-3"
         style="stroke-width:0.95" /></g><g
       id="dhw-closed-arrows"
       transform="translate(239.7384)"><path
         d="m 1544.4375,1002.6546 h 65.93 v 5.434 h -65.93 z m 61.579,-5.99444 17.4135,8.71144 -17.4135,8.7115 z"
         fill="#ffffff"
         id="Flow-Arrow-6-4"
         style="display:inline;stroke-width:0.95" /></g><g
       id="Info"
       transform="matrix(0.95,0,0,0.95,-50.807485,553.23936)"><rect
         style="fill:none;stroke:none;stroke-width:5.69837"
         id="t_room_is_value"
         width="526.3158"
         height="80.5"
         x="2179.5"
         y="945.60333" /><rect
         style="fill:none;stroke:none;stroke-width:5.8464"
         id="cop_value"
         width="526.3158"
         height="80.5"
         x="2179.5"
         y="866.65594" /><rect
         style="fill:none;stroke:none;stroke-width:6.15411"
         id="el_power_value"
         width="526.3158"
         height="80.5"
         x="2179.5"
         y="787.70856" /><rect
         style="fill:none;stroke:none;stroke-width:6.15411"
         id="therm_leistung_value"
         width="526.3158"
         height="80.5"
         x="2179.5"
         y="708.76123" /><rect
         style="fill:none;stroke:none;stroke-width:7.3643"
         id="betriebsart_value"
         width="526.3158"
         height="80.5"
         x="2179.5"
         y="629.81384" /><rect
         style="fill:none;stroke:none;stroke-width:7.95329"
         id="betriebsmodus_value"
         width="526.3158"
         height="80.5"
         x="2179.5"
         y="550.86646" /><rect
         style="fill:none;stroke:none;stroke-width:7.87623"
         id="fehlercode_value"
         width="526.3158"
         height="78.947365"
         x="2179.5"
         y="471.9191" /></g><g
       id="buh_info"
       transform="matrix(0.95,0,0,0.95,86.039582,-173.52474)"
       style="display:inline" /><g
       id="Verdichter"
       transform="matrix(0.95,0,0,0.95,-42.2875,-28.5625)"
       style="display:inline"><path
         d="m 477.26294,1036.5014 39.14182,110.8812"
         stroke="#595959"
         stroke-width="7.61979"
         stroke-miterlimit="8"
         fill="none"
         fill-rule="evenodd"
         id="path55"
         sodipodi:nodetypes="cc"
         transform="matrix(1.0526316,0,0,1.0526316,44.513158,30.065789)" /><g
         id="compressor_on_off_group"
         transform="translate(-147.36801)"><rect
           style="fill:none;fill-opacity:1;stroke:none;stroke-width:14.4371"
           id="comp_rect"
           width="111.14105"
           height="105.584"
           x="638.20801"
           y="1036.208" /><path
           d="m 748.5,1341 c 0,-27.89 22.609,-50.5 50.5,-50.5 27.89,0 50.5,22.61 50.5,50.5 0,27.89 -22.61,50.5 -50.5,50.5 -27.891,0 -50.5,-22.61 -50.5,-50.5 z"
           stroke="#404040"
           stroke-width="4.58333"
           stroke-miterlimit="8"
           fill="#7f7f7f"
           fill-rule="evenodd"
           id="path40"
           transform="translate(-108,-252)" /><path
           d="M 0,0 77.526428,8.2201418"
           stroke="#404040"
           stroke-width="6.875"
           stroke-miterlimit="8"
           fill="none"
           fill-rule="evenodd"
           transform="matrix(1,0,0,-1,655.5,1125.23)"
           id="path41"
           sodipodi:nodetypes="cc" /><path
           d="m 763.5,1305.5 77.43058,7.3471"
           stroke="#404040"
           stroke-width="6.875"
           stroke-miterlimit="8"
           fill="none"
           fill-rule="evenodd"
           id="path42"
           transform="translate(-108,-252)"
           sodipodi:nodetypes="cc" /></g><rect
         x="503.29016"
         y="1294.442"
         width="332.40305"
         height="80.144081"
         stroke="#343434"
         stroke-width="4.43905"
         stroke-miterlimit="8"
         fill="#1c1c1c"
         id="compressor_value" /><rect
         x="503.29016"
         y="1214.442"
         width="332.40305"
         height="80.144379"
         stroke="#343434"
         stroke-width="4.43905"
         stroke-miterlimit="8"
         fill="#1c1c1c"
         id="compressor_label" /></g><g
       id="Luefter"
       transform="matrix(0.95,0,0,0.95,-52.2875,-28.5625)"
       style="display:inline"><path
         d="m 189.9625,948.0375 0.2641,222.4045"
         stroke="#595959"
         stroke-width="7.61979"
         stroke-miterlimit="8"
         fill="none"
         fill-rule="evenodd"
         id="path69"
         transform="matrix(1.0526316,0,0,1.0526316,55.039474,30.065789)" /><rect
         x="214.5"
         y="1594.5"
         width="298"
         height="79.999802"
         stroke="#343434"
         stroke-width="4.58333"
         stroke-miterlimit="8"
         fill="#1c1c1c"
         id="fan_value"
         transform="translate(-108,-252)" /><rect
         x="214.5"
         y="1514.5"
         width="298"
         height="80.000099"
         stroke="#343434"
         stroke-width="4.58333"
         stroke-miterlimit="8"
         fill="#1c1c1c"
         id="fan_label"
         transform="translate(-108,-252)" /></g><g
       id="Vorlauf-BH"
       transform="matrix(0.95,0,0,0.95,-59.50625,-28.5625)"
       style="display:inline"><rect
         style="fill:none;stroke:none;stroke-width:5.18699"
         id="flow_bh_uart_value"
         width="235.646"
         height="76.474998"
         x="2018.2375"
         y="587.98749"
         transform="matrix(1.0526316,0,0,1.0526316,55.039474,30.065789)" /><rect
         style="fill:none;stroke:none;stroke-width:5.187"
         id="flow_bh_can_value"
         width="235.646"
         height="76.474998"
         x="2018.2375"
         y="511.5126"
         transform="matrix(1.0526316,0,0,1.0526316,55.039474,30.065789)" /></g><g
       id="Vorlauf-Soll"
       transform="matrix(0.95,0,0,0.95,-68.710418,-213.53542)"
       style="display:inline"><rect
         x="1591.5"
         y="1076.5"
         width="239"
         height="79.999802"
         stroke="#343434"
         stroke-width="4.58333"
         stroke-miterlimit="8"
         fill="#1c1c1c"
         id="flow_setpoint_value"
         transform="translate(-108,-252)" /><rect
         x="1591.5"
         y="996.5"
         width="239"
         height="80.000099"
         stroke="#343434"
         stroke-width="4.58333"
         stroke-miterlimit="8"
         fill="#1c1c1c"
         id="flow_setpoint_label"
         transform="translate(-108,-252)" /></g><g
       id="Vorlauf"
       transform="matrix(0.95,0,0,0.95,170.68958,-42.585418)"
       style="display:inline"><path
         d="m 1208.8257,878.00597 25.0885,-32.09347"
         stroke="#595959"
         stroke-width="13.7189"
         stroke-miterlimit="8"
         fill="none"
         fill-rule="evenodd"
         id="path18"
         style="stroke-width:8.16335;stroke-dasharray:none"
         transform="matrix(1.0526316,0,0,1.0526316,55.039474,94.065789)"
         sodipodi:nodetypes="cc" /><path
         d="m 1322.4911,1014.868 h 16.1 v 73.55 l 1.99,0.85 c 2.63,2.72 4.25,6.47 4.25,10.61 0,8.28 -6.49,14.99 -14.5,14.99 -8.01,0 -14.5,-6.71 -14.5,-14.99 0,-4.14 1.62,-7.89 4.25,-10.61 l 2.41,-1.03 z"
         stroke="#172c51"
         stroke-width="4.82456"
         stroke-miterlimit="8"
         fill="#595959"
         fill-rule="evenodd"
         id="path70" /><rect
         style="fill:none;stroke:none;stroke-width:8.593"
         id="flow_uart_value"
         width="242"
         height="80.5"
         x="1231.5"
         y="904" /><rect
         style="fill:none;stroke:none;stroke-width:8.593"
         id="flow_can_value"
         width="242"
         height="80.5"
         x="1231.5"
         y="759.50012"
         transform="translate(0,64)" /><rect
         x="1339.5"
         y="1075.5"
         width="242"
         height="161"
         stroke="#343434"
         stroke-width="4.58333"
         stroke-miterlimit="8"
         fill="#1c1c1c"
         id="rect56"
         transform="translate(-108,-252)"
         style="display:inline" /><rect
         x="1339.5"
         y="995.5"
         width="242"
         height="80.000099"
         stroke="#343434"
         stroke-width="4.58333"
         stroke-miterlimit="8"
         fill="#1c1c1c"
         id="flow_label"
         transform="translate(-108,-252)" /></g><g
       id="hot_gas_condenser"
       transform="matrix(0.95,0,0,0.95,122.60584,9.0945804)"
       style="display:inline"><path
         d="m 864.23495,914.59226 -18.637,-67.97759"
         stroke="#595959"
         stroke-width="13.7189"
         stroke-miterlimit="8"
         fill="none"
         fill-rule="evenodd"
         id="path18-2"
         style="stroke-width:8.16335;stroke-dasharray:none"
         sodipodi:nodetypes="cc"
         transform="matrix(1.0526316,0,0,1.0526316,-129.05878,9.5117351)" /><path
         d="m 770.9675,962.8522 h 16.1 v 73.5492 l 1.99,0.85 c 2.63,2.72 4.25,6.47 4.25,10.61 0,8.28 -6.49,14.99 -14.5,14.99 -8.01,0 -14.5,-6.71 -14.5,-14.99 0,-4.14 1.62,-7.89 4.25,-10.61 l 2.41,-1.03 z"
         stroke="#172c51"
         stroke-width="4.82456"
         stroke-miterlimit="8"
         fill="#595959"
         fill-rule="evenodd"
         id="path70-8" /><rect
         x="672.07898"
         y="775.78699"
         width="216.34953"
         height="76.703789"
         stroke="#343434"
         stroke-width="3.65046"
         stroke-miterlimit="8"
         fill="#1c1c1c"
         id="hot_gas_condenser_value"
         transform="matrix(1.0526316,0,0,1.0526316,-114.32194,9.5117351)" /><rect
         x="672.07898"
         y="699.78699"
         width="216.34953"
         height="76.703514"
         stroke="#343434"
         stroke-width="3.65046"
         stroke-miterlimit="8"
         fill="#1c1c1c"
         id="hot_gas_condenser_label"
         transform="matrix(1.0526316,0,0,1.0526316,-114.32194,9.5117351)" /></g><g
       id="hot_gas"
       transform="matrix(0.95,0,0,0.95,-155.95798,9.0946803)"
       style="display:inline"><path
         d="m 567.43083,933.1117 -18.67,-92.32117"
         stroke="#595959"
         stroke-width="13.7189"
         stroke-miterlimit="8"
         fill="none"
         fill-rule="evenodd"
         id="path18-2-0"
         style="stroke-width:8.16335;stroke-dasharray:none"
         sodipodi:nodetypes="cc"
         transform="matrix(1.0526316,0,0,1.0526316,164.16629,-9.5733477)" /><path
         d="m 752.91173,962.85164 h 16.1 v 73.54996 l 1.99,0.85 c 2.63,2.72 4.25,6.47 4.25,10.61 0,8.28 -6.49,14.99 -14.5,14.99 -8.01,0 -14.5,-6.71 -14.5,-14.99 0,-4.14 1.62,-7.89 4.25,-10.61 l 2.41,-1.03 z"
         stroke="#172c51"
         stroke-width="4.82456"
         stroke-miterlimit="8"
         fill="#595959"
         fill-rule="evenodd"
         id="path70-8-8" /><rect
         x="672.07898"
         y="775.78699"
         width="216.34953"
         height="76.703789"
         stroke="#343434"
         stroke-width="3.65046"
         stroke-miterlimit="8"
         fill="#1c1c1c"
         id="hot_gas_value"
         transform="matrix(1.0526316,0,0,1.0526316,-114.32194,9.5117351)" /><rect
         x="672.07898"
         y="699.78699"
         width="216.34953"
         height="76.703514"
         stroke="#343434"
         stroke-width="3.65046"
         stroke-miterlimit="8"
         fill="#1c1c1c"
         id="hot_gas_label"
         transform="matrix(1.0526316,0,0,1.0526316,-114.32194,9.5117351)" /></g><g
       id="Verdampfer"
       transform="matrix(0.95,0,0,0.95,-111.65051,-213.63278)"
       style="display:inline"><path
         d="m 472.84586,548.26726 -144.8627,66.93395"
         stroke="#595959"
         stroke-width="7.61979"
         stroke-miterlimit="8"
         fill="none"
         fill-rule="evenodd"
         id="path21"
         sodipodi:nodetypes="cc"
         transform="matrix(1.0526316,0,0,1.0526316,117.52685,224.87661)" /><rect
         x="429.27289"
         y="563.4104"
         width="246.11255"
         height="76.466805"
         stroke="#343434"
         stroke-width="3.88746"
         stroke-miterlimit="8"
         fill="#1c1c1c"
         id="evaporator_value"
         transform="matrix(1.0526316,0,0,1.0526316,141.38816,233.19079)" /><rect
         x="429.27289"
         y="487.4104"
         width="246.11255"
         height="76.466522"
         stroke="#343434"
         stroke-width="3.88745"
         stroke-miterlimit="8"
         fill="#1c1c1c"
         id="evaporator_label"
         transform="matrix(1.0526316,0,0,1.0526316,141.38816,233.19079)" /></g><g
       id="Ruecklauf"
       transform="matrix(0.95,0,0,0.95,-48.383312,-28.5625)"
       style="display:inline"><path
         d="m 2088.8904,382.53602 0.1602,-61.53601"
         stroke="#595959"
         stroke-width="5.14579"
         stroke-miterlimit="8"
         fill="none"
         fill-rule="evenodd"
         id="path20" /><path
         d="m 1928.833,324.3625 h 15.8175 v 69.87155 l 1.9665,0.8113 c 2.5745,2.5783 4.1705,6.1389 4.1705,10.07285 0,7.86695 -6.384,14.2443 -14.25,14.2443 -7.866,0 -14.25,-6.37735 -14.25,-14.2443 0,-3.93395 1.596,-7.49455 4.1705,-10.07285 l 2.375,-0.98325 z"
         stroke="#172c51"
         stroke-width="4.58333"
         stroke-miterlimit="8"
         fill="#595959"
         fill-rule="evenodd"
         id="path65"
         transform="matrix(1.0526316,0,0,1.0526316,50.929802,30.065789)" /><rect
         x="1827.4688"
         y="203.5789"
         width="237.02011"
         height="77.373962"
         stroke="#343434"
         stroke-width="2.97989"
         stroke-miterlimit="8"
         fill="#1c1c1c"
         id="return_flow_uart_value"
         transform="matrix(1.0526316,0,0,1.0526316,41.125,30.065789)" /><rect
         x="1827.4688"
         y="123.22504"
         width="237.02011"
         height="77.373962"
         stroke="#343434"
         stroke-width="2.97989"
         stroke-miterlimit="8"
         fill="#1c1c1c"
         id="return_flow_can_value"
         transform="matrix(1.0526316,0,0,1.0526316,41.125,30.065789)" /><rect
         x="1828.123"
         y="123.87919"
         width="235.71245"
         height="153.01662"
         stroke="#343434"
         stroke-width="4.28754"
         stroke-miterlimit="8"
         fill="#1c1c1c"
         id="rect60"
         transform="matrix(1.0526316,0,0,1.0526316,41.125,30.065789)" /><rect
         x="1828.1234"
         y="47.879646"
         width="235.71155"
         height="76.065796"
         stroke="#343434"
         stroke-width="4.28845"
         stroke-miterlimit="8"
         fill="#1c1c1c"
         id="return_flow_label"
         transform="matrix(1.0526316,0,0,1.0526316,41.125,30.065789)" /></g><g
       id="Durchfluss"
       transform="matrix(0.95,0,0,0.95,-52.2875,-28.5625)"
       style="display:inline"><rect
         x="1531.8375"
         y="376.61249"
         width="124.45"
         height="53.200096"
         stroke="#2f528f"
         stroke-width="4.58333"
         stroke-miterlimit="8"
         fill="#4472c4"
         id="rect47"
         transform="matrix(1.0526316,0,0,1.0526316,55.039474,30.065789)" /><text
         fill="#ffffff"
         font-family="Calibri, Calibri_MSFontService, sans-serif"
         font-weight="400"
         font-size="43.7px"
         id="text47"
         x="1564.47"
         y="417.9375"
         style="stroke-width:0.95"
         transform="matrix(1.0526316,0,0,1.0526316,55.039474,30.065789)">FLS</text><path
         d="m 1650.426,199.4375 -56.3601,177.07145"
         stroke="#595959"
         stroke-width="7.61979"
         stroke-miterlimit="8"
         fill="none"
         fill-rule="evenodd"
         id="path60"
         transform="matrix(1.0526316,0,0,1.0526316,55.039474,30.065789)" /><rect
         x="1751.5"
         y="412.5"
         width="298"
         height="80.000099"
         stroke="#343434"
         stroke-width="4.58333"
         stroke-miterlimit="8"
         fill="#1c1c1c"
         id="flow_rate_value"
         transform="translate(-108,-252)" /><rect
         x="1751.5"
         y="332.5"
         width="298"
         height="80.000099"
         stroke="#343434"
         stroke-width="4.58333"
         stroke-miterlimit="8"
         fill="#1c1c1c"
         id="flow_rate_label"
         transform="translate(-108,-252)" /></g><g
       id="Umwaelzpumpe"
       transform="matrix(0.95,0,0,0.95,-52.2875,-28.5625)"
       style="display:inline"><path
         d="m 1334.513,199.4375 29.8133,171.5697"
         stroke="#595959"
         stroke-width="7.61979"
         stroke-miterlimit="8"
         fill="none"
         fill-rule="evenodd"
         id="path13"
         sodipodi:nodetypes="cc"
         transform="matrix(1.0526316,0,0,1.0526316,55.039474,30.065789)" /><g
         id="g3"
         transform="translate(-25.262745)"><rect
           style="fill:none;fill-opacity:1;stroke:none;stroke-width:14.4369"
           id="circ_pump_rect"
           width="111.14"
           height="105.583"
           x="1470.208"
           y="402.20801" /><path
           d="m 1486.5,707 c 0,-27.89 22.61,-50.5 50.5,-50.5 27.89,0 50.5,22.61 50.5,50.5 0,27.891 -22.61,50.5 -50.5,50.5 -27.89,0 -50.5,-22.609 -50.5,-50.5 z"
           stroke="#2f528f"
           stroke-width="4.58333"
           stroke-miterlimit="8"
           fill="#4472c4"
           fill-rule="evenodd"
           id="path46"
           transform="translate(-14,-252)" /><path
           d="m 1547.5,496.2622 -68,-40.5 68,-40.5 z"
           stroke="#2f528f"
           stroke-width="4.58333"
           stroke-miterlimit="8"
           fill="#2f5597"
           fill-rule="evenodd"
           id="path47"
           inkscape:label="path47" /></g><rect
         x="1412.5"
         y="412.5"
         width="312"
         height="80.000099"
         stroke="#343434"
         stroke-width="4.58333"
         stroke-miterlimit="8"
         fill="#1c1c1c"
         id="uwp_value"
         transform="translate(-108,-252)" /><rect
         x="1412.5"
         y="332.5"
         width="312"
         height="80.000099"
         stroke="#343434"
         stroke-width="4.58333"
         stroke-miterlimit="8"
         fill="#1c1c1c"
         id="uwp_label"
         transform="translate(-108,-252)"
         style="display:inline" /></g><g
       id="Kondensat"
       transform="matrix(0.95,0,0,0.95,-38.2875,-28.5625)"
       style="display:inline"><path
         d="M 931.2285,199.4375 839.56096,329.89342"
         stroke="#595959"
         stroke-width="7.61979"
         stroke-miterlimit="8"
         fill="none"
         fill-rule="evenodd"
         id="path15"
         transform="matrix(1.0526316,0,0,1.0526316,40.302632,30.065789)"
         sodipodi:nodetypes="cc" /><path
         d="m 836.1145,325.3125 h 15.295 v 69.1733 l 1.8905,0.80275 c 2.4985,2.55265 4.0375,6.0781 4.0375,9.97215 0,7.7881 -6.1655,14.1018 -13.775,14.1018 -7.6095,0 -13.775,-6.3137 -13.775,-14.1018 0,-3.89405 1.539,-7.4195 4.0375,-9.97215 l 2.2895,-0.97375 z"
         stroke="#172c51"
         stroke-width="4.58333"
         stroke-miterlimit="8"
         fill="#595959"
         fill-rule="evenodd"
         id="path84"
         transform="matrix(1.0526316,0,0,1.0526316,40.302632,30.065789)" /><rect
         x="995.5"
         y="412.5"
         width="296"
         height="80.000099"
         stroke="#343434"
         stroke-width="4.58333"
         stroke-miterlimit="8"
         fill="#1c1c1c"
         id="kondensat_value"
         transform="translate(-108,-252)" /><rect
         x="995.5"
         y="332.5"
         width="296"
         height="80.000099"
         stroke="#343434"
         stroke-width="4.58333"
         stroke-miterlimit="8"
         fill="#1c1c1c"
         id="kondensat_label"
         transform="translate(-108,-252)" /></g><g
       id="EEV"
       transform="matrix(0.95,0,0,0.95,-38.2875,-28.5625)"
       style="display:inline"><path
         d="M 650.57665,201.3375 567.99523,396.56249"
         stroke="#595959"
         stroke-width="7.61979"
         stroke-miterlimit="8"
         fill="none"
         fill-rule="evenodd"
         id="path14"
         transform="matrix(1.0526316,0,0,1.0526316,40.302632,30.065789)"
         sodipodi:nodetypes="cc" /><path
         d="m 667.3375,442.1625 -63.65,-36.575 63.65,-36.575 z"
         stroke="#404040"
         stroke-width="4.58333"
         stroke-miterlimit="8"
         fill="#7f7f7f"
         fill-rule="evenodd"
         id="eev_arrow_right"
         transform="matrix(1.0526316,0,0,1.0526316,40.302632,30.065789)" /><path
         d="m 540.9875,369.0125 62.7,36.575 -62.7,36.575 z"
         stroke="#404040"
         stroke-width="4.58333"
         stroke-miterlimit="8"
         fill="#7f7f7f"
         fill-rule="evenodd"
         id="eev_arrow_left"
         transform="matrix(1.0526316,0,0,1.0526316,40.302632,30.065789)" /><rect
         x="731.5"
         y="414.5"
         width="234"
         height="80.000099"
         stroke="#343434"
         stroke-width="4.58333"
         stroke-miterlimit="8"
         fill="#1c1c1c"
         id="eev_val"
         transform="translate(-108,-252)" /><rect
         x="731.5"
         y="334.5"
         width="234"
         height="80.000099"
         stroke="#343434"
         stroke-width="4.58333"
         stroke-miterlimit="8"
         fill="#1c1c1c"
         id="eev_label"
         transform="translate(-108,-252)" /></g><g
       id="TA2"
       transform="matrix(0.95,0,0,0.95,-38.2875,-28.5625)"
       style="display:inline"><path
         d="m 368.93334,177.29797 -78.71443,185.9074"
         stroke="#595959"
         stroke-width="7.61979"
         stroke-miterlimit="8"
         fill="none"
         fill-rule="evenodd"
         id="path14-0"
         transform="matrix(1.0526316,0,0,1.0526316,40.302632,30.065789)" /><rect
         x="473.5"
         y="412.5"
         width="233"
         height="80.000099"
         stroke="#343434"
         stroke-width="4.58333"
         stroke-miterlimit="8"
         fill="#1c1c1c"
         id="ta2_val"
         transform="translate(-108,-252)" /><rect
         x="473.5"
         y="333.5"
         width="233"
         height="79.000099"
         stroke="#343434"
         stroke-width="4.58333"
         stroke-miterlimit="8"
         fill="#1c1c1c"
         id="ta2_label"
         transform="translate(-108,-252)" /></g><g
       id="TA"
       transform="matrix(0.95,0,0,0.95,-52.2875,-28.5625)"
       style="display:inline"><rect
         x="48.949482"
         y="123.97448"
         width="235.52199"
         height="75.876137"
         stroke="#343434"
         stroke-width="4.47812"
         stroke-miterlimit="8"
         fill="#1c1c1c"
         id="ta_val"
         transform="matrix(1.0526316,0,0,1.0526316,55.039474,30.065789)" /><rect
         x="48.949459"
         y="48.924458"
         width="235.52199"
         height="74.926178"
         stroke="#343434"
         stroke-width="4.47808"
         stroke-miterlimit="8"
         fill="#1c1c1c"
         id="ta_label"
         transform="matrix(1.0526316,0,0,1.0526316,55.039474,30.065789)" /></g><g
       id="DateTime"
       transform="matrix(0.95,0,0,0.95,-52.79946,1374.5505)"
       style="display:inline"><rect
         x="380.24942"
         y="81.065239"
         width="231.57895"
         height="79.869621"
         stroke="#343434"
         stroke-width="4.71381"
         stroke-miterlimit="8"
         fill="#1c1c1c"
         id="time_value"
         style="fill:#1a1a1a;stroke:none;stroke-width:4.55578947;stroke-dasharray:none;fill-opacity:1;stroke-opacity:1" /><rect
         x="106.56522"
         y="81.565216"
         width="273.6842"
         height="78.869659"
         stroke="#343434"
         stroke-width="4.95267"
         stroke-miterlimit="8"
         fill="#1c1c1c"
         id="date_value"
         style="fill:#333333;stroke:none;fill-opacity:1" /></g><g
       id="verdampfer"
       style="display:inline"><rect
         x="241.73749"
         y="301.5625"
         width="141.55"
         height="802.75"
         stroke="#2f528f"
         stroke-width="4.58333"
         stroke-miterlimit="8"
         fill="#2f5597"
         id="rect23"
         style="display:inline" /><path
         d="m 241.7375,1104.3125 141.55,-802.75 v 802.75 z"
         stroke="#2f528f"
         stroke-width="0"
         stroke-miterlimit="8"
         fill="#411d07"
         fill-rule="evenodd"
         id="path23"
         style="display:inline" /></g></g></svg>
